# xmcd
#
# Track frame offsets:
#	182
#	11172
#	22422
#	31950
#	41375
#	51620
#	65740
#	76447
#	86882
#	98222
#	111025
#	120550
#
# Disc length: 1783 seconds
#
# Revision: 2
# Processed by: cddbd v1.5.2PL0 Copyright (c) Steve Scherf et al.
# Submitted via: audiograbber 1.83.01
#
DISCID=a606f50c
DTITLE=Os Carbonos - Tema Para Jovens Namorados
DYEAR=1993
DGENRE=Instrumental
TTITLE0=Gerônimo
TTITLE1=My Love For You
TTITLE2=Only You
TTITLE3=Look For a Star
TTITLE4=What a Wonderfull World
TTITLE5=Theme For Young Lovers
TTITLE6=The Millionaire
TTITLE7=Smoke Gets In Four Eyes
TTITLE8=Midnight
TTITLE9=Theme For Young Lovers
TTITLE10=The End
TTITLE11=Blue Star
EXTD=Dados Por - Dayvison de Azevedo - Recife - PE\nFacebook - https://www.face
EXTD=book.com/profile.php?id=100006142608616
EXTT0=
EXTT1=
EXTT2=
EXTT3=
EXTT4=
EXTT5=
EXTT6=
EXTT7=
EXTT8=
EXTT9=
EXTT10=
EXTT11=
PLAYORDER=
